<?xml version="1.0" standalone="no"?>
<!DOCTYPE svg PUBLIC "-//W3C//DTD SVG 20010904//EN"
 "http://www.w3.org/TR/2001/REC-SVG-20010904/DTD/svg10.dtd">
<svg version="1.0" xmlns="http://www.w3.org/2000/svg"
 width="150.000000pt" height="150.000000pt" viewBox="0 0 150.000000 150.000000"
 preserveAspectRatio="xMidYMid meet">

<g transform="translate(0.000000,150.000000) scale(0.100000,-0.100000)"
fill="#000000" stroke="none">
<path d="M593 1441 c-12 -21 -30 -35 -55 -42 -21 -5 -50 -20 -65 -33 -25 -22
-26 -24 -10 -40 22 -23 21 -33 -3 -48 -31 -19 -24 -30 17 -26 38 3 53 -12 31
-29 -7 -5 -34 -17 -60 -27 -49 -18 -138 -89 -126 -101 3 -4 33 3 66 15 104 38
147 10 69 -45 -53 -37 -33 -43 47 -15 82 28 120 26 145 -6 l21 -27 -6 30 c-5
24 -2 31 21 41 14 7 37 12 50 12 29 0 75 -20 75 -32 0 -5 7 -5 16 0 10 5 35 5
63 -1 81 -16 86 -15 86 18 0 25 4 30 25 31 46 0 52 12 28 53 -28 49 -20 71 27
71 40 0 45 15 18 60 -17 30 -81 69 -145 90 -21 6 -38 18 -38 26 0 19 -38 56
-50 49 -6 -4 -10 -18 -10 -32 0 -19 -4 -24 -16 -19 -9 3 -53 6 -98 6 -78 0
-83 1 -82 21 1 34 -22 34 -41 0z m31 -4 c-2 -7 2 -21 9 -31 11 -15 19 -17 51
-8 21 6 43 9 49 7 7 -2 31 -6 55 -9 41 -6 43 -5 56 25 14 32 14 32 26 10 12
-23 10 -48 -5 -85 -8 -19 -8 -19 15 -3 31 21 74 22 94 1 19 -18 19 -20 6 -45
-15 -27 -68 -52 -100 -46 -25 6 -27 3 -45 -68 -23 -94 -27 -100 -53 -86 -26
14 -68 14 -94 0 -26 -14 -30 -8 -53 86 -18 71 -20 74 -45 68 -32 -6 -85 19
-100 47 -26 49 32 77 94 45 38 -20 40 -19 22 7 -19 27 -21 69 -4 86 16 16 29
15 22 -1z"/>
<path d="M655 1240 c-3 -5 -1 -10 4 -10 6 0 11 5 11 10 0 6 -2 10 -4 10 -3 0
-8 -4 -11 -10z"/>
<path d="M800 1240 c0 -5 5 -10 11 -10 5 0 7 5 4 10 -3 6 -8 10 -11 10 -2 0
-4 -4 -4 -10z"/>
<path d="M1080 1344 c0 -8 5 -12 10 -9 6 3 10 10 10 16 0 5 -4 9 -10 9 -5 0
-10 -7 -10 -16z"/>
<path d="M1071 1196 c-9 -10 -9 -16 -1 -21 17 -10 37 12 24 25 -8 8 -15 6 -23
-4z"/>
<path d="M337 1193 c-4 -3 -7 -11 -7 -17 0 -6 5 -5 12 2 6 6 9 14 7 17 -3 3
-9 2 -12 -2z"/>
<path d="M990 1079 c0 -5 5 -7 10 -4 6 3 10 8 10 11 0 2 -4 4 -10 4 -5 0 -10
-5 -10 -11z"/>
<path d="M692 1023 c-6 -2 -10 -9 -6 -14 8 -14 21 -11 21 6 0 8 -1 15 -1 14
-1 0 -7 -3 -14 -6z"/>
<path d="M763 1023 c4 -3 5 -9 1 -14 -7 -12 7 -11 26 1 9 6 10 10 3 10 -6 0
-17 2 -25 3 -7 2 -10 2 -5 0z"/>
<path d="M340 1009 c0 -5 5 -7 10 -4 6 3 10 8 10 11 0 2 -4 4 -10 4 -5 0 -10
-5 -10 -11z"/>
<path d="M391 934 c-39 -43 -65 -102 -88 -191 -8 -35 -17 -62 -20 -60 -2 3 2
46 9 96 11 85 10 95 -7 127 -15 28 -24 34 -50 34 -84 0 -122 -146 -53 -206 20
-18 20 -17 -2 13 -25 35 -31 104 -11 142 14 26 48 44 68 37 14 -6 15 -21 9
-104 -3 -53 -9 -120 -12 -148 -5 -40 -3 -54 11 -68 10 -9 22 -15 28 -13 6 2
18 39 27 83 26 123 37 155 72 214 22 37 41 56 56 58 19 3 22 0 18 -20 -3 -13
-17 -75 -32 -138 -29 -127 -28 -208 2 -241 18 -20 49 -25 58 -11 3 5 -5 8 -17
8 -34 -1 -33 54 4 221 36 162 34 196 -12 201 -20 2 -34 -6 -58 -34z"/>
<path d="M820 950 c0 -6 -28 -9 -71 -8 -64 3 -73 1 -86 -19 -9 -13 -11 -23 -5
-23 5 0 12 10 15 21 5 20 11 21 63 16 31 -3 60 -9 64 -14 13 -14 -19 -195 -43
-243 -44 -90 -77 -50 -53 64 7 36 11 68 8 71 -16 15 -34 0 -57 -48 -49 -104
-97 -116 -71 -18 12 46 12 53 -2 58 -21 9 -39 -20 -47 -75 -4 -25 -17 -74 -30
-109 -12 -34 -19 -60 -14 -58 4 3 15 29 24 58 20 59 30 74 39 58 11 -17 44
-13 66 9 25 25 30 25 30 0 0 -26 20 -68 35 -74 24 -9 52 5 70 37 l19 32 8 -39
c11 -51 24 -66 58 -66 35 0 54 28 76 112 18 65 42 109 30 53 -18 -80 -18 -125
-2 -150 9 -14 25 -25 35 -25 23 0 68 51 77 86 6 23 24 34 24 14 0 -15 39 -32
59 -25 21 6 71 94 70 121 0 11 -6 3 -14 -18 -18 -50 -45 -88 -61 -88 -17 0
-19 67 -4 120 7 24 6 36 -2 41 -18 12 -38 -1 -44 -30 -22 -109 -70 -211 -99
-211 -20 0 -23 30 -9 95 17 79 17 95 0 95 -31 0 -46 29 -39 76 6 44 5 46 -18
42 -32 -4 -38 -57 -11 -95 19 -27 19 -28 0 -97 -29 -105 -71 -140 -83 -72 -6
32 18 236 32 272 5 13 16 15 62 10 59 -6 101 7 109 34 2 9 -2 7 -11 -5 -22
-29 -135 -25 -156 5 -14 21 -41 27 -41 10z"/>
<path d="M1120 865 c0 -8 7 -15 15 -15 8 0 15 7 15 15 0 8 -7 15 -15 15 -8 0
-15 -7 -15 -15z"/>
<path d="M283 535 c-39 -17 -65 -64 -65 -120 0 -43 25 -105 42 -105 5 0 0 16
-12 35 -28 49 -21 115 18 156 30 31 53 36 72 17 18 -18 15 -51 -23 -202 -50
-199 -46 -242 27 -270 49 -20 91 -20 131 0 40 20 97 74 97 91 0 7 -20 -7 -44
-32 -51 -51 -112 -73 -148 -54 -47 25 -49 52 -9 204 16 61 31 127 35 147 8 41
-7 110 -27 125 -23 19 -62 22 -94 8z"/>
<path d="M895 526 c-8 -13 -18 -14 -50 -6 -60 14 -118 12 -143 -6 -22 -15 -31
-54 -11 -54 5 0 8 4 4 10 -11 17 33 50 68 49 46 -1 122 -22 122 -34 0 -5 -7
-56 -14 -113 -17 -122 -61 -225 -98 -230 -32 -5 -39 35 -19 116 23 94 22 102
-14 102 -27 0 -31 -4 -46 -56 -20 -71 -67 -126 -103 -122 -20 2 -27 9 -29 31
-3 21 1 27 15 27 10 0 29 7 41 16 30 21 31 79 1 94 -49 27 -109 -34 -109 -109
0 -78 68 -106 130 -55 35 30 33 31 46 -16 6 -21 20 -40 37 -50 24 -13 30 -13
54 0 15 9 38 33 50 55 l23 40 0 -53 c0 -86 34 -142 85 -142 28 0 71 53 90 110
22 67 20 66 40 46 24 -24 69 -20 105 10 35 30 75 100 61 108 -5 3 -12 -5 -15
-19 -3 -13 -20 -41 -38 -60 -39 -45 -81 -46 -86 -2 -3 21 1 27 16 27 11 0 30
8 42 18 39 32 24 102 -22 102 -32 0 -88 -63 -88 -98 0 -39 -34 -148 -60 -190
-23 -37 -44 -41 -61 -10 -19 36 -1 238 36 395 5 21 8 21 95 16 100 -7 140 8
140 50 -1 21 -2 20 -15 -5 -18 -32 -72 -43 -155 -31 -45 7 -55 12 -55 28 0 25
-55 34 -70 11z m-265 -225 c0 -18 -34 -51 -52 -51 -14 0 -8 33 9 52 21 24 43
23 43 -1z m530 4 c0 -17 -35 -55 -50 -55 -15 0 -12 22 6 48 17 25 44 29 44 7z"/>
<path d="M744 425 c-4 -9 -2 -21 3 -26 14 -14 45 1 41 20 -4 22 -37 26 -44 6z"/>
</g>
</svg>
